<svg width="24" height="23" viewBox="0 0 24 23" fill="none" xmlns="http://www.w3.org/2000/svg">
<path d="M3.96094 17.626H5.85791V19.3896C5.85791 21.502 6.93457 22.5684 9.07764 22.5684H20.0288C22.1719 22.5684 23.2485 21.502 23.2485 19.3896V8.48975C23.2485 6.3877 22.1719 5.32129 20.0288 5.32129H18.1318V3.66016C18.1318 1.54785 17.0449 0.481445 14.9121 0.481445H3.96094C1.80762 0.481445 0.741211 1.54785 0.741211 3.66016V14.4575C0.741211 16.5698 1.80762 17.626 3.96094 17.626ZM3.98145 15.9751C2.95605 15.9751 2.39209 15.4316 2.39209 14.3652V3.75244C2.39209 2.68604 2.95605 2.13232 3.98145 2.13232H14.8813C15.8965 2.13232 16.481 2.68604 16.481 3.75244V5.32129H9.07764C6.93457 5.32129 5.85791 6.37744 5.85791 8.48975V15.9751H3.98145ZM9.1084 20.9175C8.08301 20.9175 7.50879 20.3638 7.50879 19.2974V8.58203C7.50879 7.51562 8.08301 6.97217 9.1084 6.97217H20.0083C21.0234 6.97217 21.5977 7.51562 21.5977 8.58203V19.3076C21.5977 20.3638 21.0234 20.9175 20.0083 20.9175H9.1084Z" fill="#2E7CF6"/>
</svg>
