<svg width="12" height="19" viewBox="0 0 12 19" fill="none" xmlns="http://www.w3.org/2000/svg">
<path d="M9.41455 18.2202C9.58887 18.3945 9.81445 18.4971 10.0811 18.4971C10.6143 18.4971 11.0142 18.0972 11.0142 17.564C11.0142 17.3076 10.9116 17.0718 10.7476 16.8975L3.28271 9.59668L10.7476 2.2959C10.9116 2.12158 11.0142 1.87549 11.0142 1.62939C11.0142 1.09619 10.6143 0.686035 10.0811 0.686035C9.81445 0.686035 9.58887 0.788574 9.41455 0.962891L1.29346 8.90967C1.09863 9.07373 0.98584 9.33008 0.98584 9.59668C0.98584 9.85303 1.08838 10.0889 1.2832 10.2837L9.41455 18.2202Z" fill="#2E7CF6"/>
</svg>
