<svg width="22" height="19" viewBox="0 0 22 19" fill="none" xmlns="http://www.w3.org/2000/svg">
<path d="M10.9897 2.37793C10.2104 1.39355 8.27246 0.521973 6.10889 0.521973C3.26855 0.521973 0.97168 1.98828 0.407715 3.3623V17.687C0.407715 18.4663 0.910156 18.7637 1.47412 18.7637C1.91504 18.7637 2.18164 18.6304 2.4585 18.415C3.04297 17.9126 4.22217 17.2358 6.10889 17.2358C8.00586 17.2358 9.32861 17.8921 9.84131 18.3535C10.1079 18.5688 10.4258 18.7637 10.9897 18.7637C11.5537 18.7637 11.8716 18.5483 12.1382 18.3535C12.6919 17.9229 13.9839 17.2358 15.8706 17.2358C17.7676 17.2358 18.9468 17.9229 19.5312 18.415C19.8081 18.6304 20.0645 18.7637 20.5054 18.7637C21.0693 18.7637 21.582 18.4663 21.582 17.687V3.3623C21.0181 1.98828 18.7109 0.521973 15.8706 0.521973C13.7173 0.521973 11.7793 1.39355 10.9897 2.37793ZM2.05859 3.85449C2.29443 3.21875 3.78125 2.07031 6.10889 2.07031C8.44678 2.07031 9.96436 3.229 10.1694 3.85449V16.8257C9.19531 16.0977 7.7085 15.6875 6.10889 15.6875C4.51953 15.6875 3.03271 16.0977 2.05859 16.8667V3.85449ZM19.9312 3.85449V16.8667C18.9468 16.0977 17.4702 15.6875 15.8706 15.6875C14.271 15.6875 12.7944 16.0977 11.8203 16.8257V3.85449C12.0254 3.229 13.543 2.07031 15.8706 2.07031C18.2085 2.07031 19.6953 3.21875 19.9312 3.85449Z" fill="#2E7CF6"/>
</svg>
