<svg width="16" height="19" viewBox="0 0 16 19" fill="none" xmlns="http://www.w3.org/2000/svg">
<path d="M7.57812 9.11108C7.79785 9.11108 7.96484 9.04077 8.09668 8.90894L11.5156 5.46362C11.6738 5.30542 11.7441 5.12964 11.7441 4.92749C11.7441 4.73413 11.665 4.54077 11.5156 4.39136L8.09668 0.919678C7.96484 0.779053 7.79785 0.699951 7.57812 0.699951C7.18262 0.699951 6.875 1.02515 6.875 1.43823C6.875 1.6228 6.94531 1.79858 7.06836 1.948L9.21289 4.03979C8.76465 3.96069 8.30762 3.92554 7.85938 3.92554C3.76367 3.92554 0.485352 7.19507 0.485352 11.2908C0.485352 15.3865 3.77246 18.6824 7.86816 18.6824C11.9551 18.6824 15.2422 15.3865 15.2422 11.2908C15.2422 10.8601 14.9346 10.5437 14.4951 10.5437C14.0732 10.5437 13.792 10.8601 13.792 11.2908C13.792 14.5867 11.1553 17.2322 7.86816 17.2322C4.57227 17.2322 1.93555 14.5867 1.93555 11.2908C1.93555 7.98608 4.56348 5.35815 7.85938 5.35815C8.46582 5.35815 9.01074 5.4021 9.49414 5.49878L7.07715 7.89819C6.94531 8.03882 6.875 8.20581 6.875 8.39038C6.875 8.80347 7.18262 9.11108 7.57812 9.11108Z" fill="black"/>
</svg>
