<svg width="65" height="16" viewBox="0 0 65 16" fill="none" xmlns="http://www.w3.org/2000/svg">
<path fill-rule="evenodd" clip-rule="evenodd" d="M17 3H16C15.4477 3 15 3.44772 15 4V12.6667C15 13.219 15.4477 13.6667 16 13.6667H17C17.5523 13.6667 18 13.219 18 12.6667V4C18 3.44772 17.5523 3 17 3ZM11.3333 5.33333H12.3333C12.8856 5.33333 13.3333 5.78105 13.3333 6.33333V12.6667C13.3333 13.219 12.8856 13.6667 12.3333 13.6667H11.3333C10.781 13.6667 10.3333 13.219 10.3333 12.6667V6.33333C10.3333 5.78105 10.781 5.33333 11.3333 5.33333ZM7.66667 7.66667H6.66667C6.11438 7.66667 5.66667 8.11438 5.66667 8.66667V12.6667C5.66667 13.219 6.11438 13.6667 6.66667 13.6667H7.66667C8.21895 13.6667 8.66667 13.219 8.66667 12.6667V8.66667C8.66667 8.11438 8.21895 7.66667 7.66667 7.66667ZM3 9.66667H2C1.44772 9.66667 1 10.1144 1 10.6667V12.6667C1 13.219 1.44772 13.6667 2 13.6667H3C3.55228 13.6667 4 13.219 4 12.6667V10.6667C4 10.1144 3.55228 9.66667 3 9.66667Z" fill="#020202"/>
<path fill-rule="evenodd" clip-rule="evenodd" d="M35.9396 7.65566C34.3336 6.12886 32.2025 5.27742 29.9866 5.27733C27.7705 5.27732 25.6391 6.12876 24.0329 7.65566C23.9121 7.77372 23.7186 7.77223 23.5996 7.65233L22.4432 6.48566C22.383 6.42489 22.3494 6.34262 22.35 6.25704C22.3505 6.17146 22.3852 6.08963 22.4462 6.02966C26.6613 1.99011 33.3111 1.99011 37.5262 6.02966C37.5873 6.08967 37.6218 6.17153 37.6223 6.25711C37.6228 6.34269 37.5892 6.42494 37.5289 6.48566L36.3729 7.65233C36.2538 7.77205 36.0605 7.77354 35.9396 7.65566ZM29.9866 9.07299C31.2041 9.07292 32.3782 9.52545 33.2806 10.3427C33.4027 10.4586 33.595 10.4561 33.714 10.337L34.8686 9.17032C34.9294 9.10913 34.9632 9.02611 34.9623 8.93985C34.9614 8.85358 34.926 8.77127 34.864 8.71132C32.1158 6.15494 27.8598 6.15494 25.1116 8.71132C25.0496 8.77127 25.0141 8.85362 25.0133 8.93992C25.0125 9.02621 25.0464 9.10922 25.1073 9.17032L26.2616 10.337C26.3806 10.4561 26.5729 10.4586 26.695 10.3427C27.5968 9.52599 28.7699 9.07349 29.9866 9.07299ZM32.2056 11.8573C32.2673 11.7967 32.3013 11.7133 32.2996 11.6268C32.2978 11.5403 32.2604 11.4584 32.1962 11.4003C30.9207 10.3214 29.0525 10.3214 27.7769 11.4003C27.7127 11.4583 27.6752 11.5402 27.6734 11.6267C27.6716 11.7132 27.7055 11.7967 27.7672 11.8573L29.7649 13.873C29.8235 13.9322 29.9033 13.9656 29.9866 13.9656C30.0699 13.9656 30.1497 13.9322 30.2082 13.873L32.2056 11.8573Z" fill="#020202"/>
<g clip-path="url(#clip0_2873_124)">
<path opacity="0.35" d="M43.6667 2.5H60.3333C61.53 2.5 62.5 3.47005 62.5 4.66667V10.6667C62.5 11.8633 61.53 12.8333 60.3333 12.8333H43.6667C42.47 12.8333 41.5 11.8633 41.5 10.6667V4.66666C41.5 3.47005 42.47 2.5 43.6667 2.5Z" stroke="#020202"/>
<path opacity="0.4" d="M64 5.66669V9.66669C64.8047 9.32791 65.328 8.53982 65.328 7.66669C65.328 6.79355 64.8047 6.00546 64 5.66669" fill="#020202"/>
<path d="M43 5.33333C43 4.59695 43.597 4 44.3333 4H59.6667C60.403 4 61 4.59695 61 5.33333V10C61 10.7364 60.403 11.3333 59.6667 11.3333H44.3333C43.597 11.3333 43 10.7364 43 10V5.33333Z" fill="#020202"/>
</g>
<defs>
<clipPath id="clip0_2873_124">
<rect width="25" height="16" fill="white" transform="translate(40)"/>
</clipPath>
</defs>
</svg>
