<svg width="12" height="19" viewBox="0 0 12 19" fill="none" xmlns="http://www.w3.org/2000/svg">
<path d="M1.91895 18.5073C2.18555 18.5073 2.41113 18.4048 2.58545 18.2305L10.7168 10.2837C10.9116 10.0889 11.0142 9.85303 11.0142 9.59668C11.0142 9.33008 10.9116 9.08398 10.7168 8.90967L2.5957 0.973145C2.41113 0.788574 2.18555 0.686035 1.91895 0.686035C1.38574 0.686035 0.98584 1.09619 0.98584 1.62939C0.98584 1.87549 1.08838 2.12158 1.25244 2.2959L8.71729 9.59668L1.25244 16.8975C1.08838 17.0718 0.98584 17.3076 0.98584 17.564C0.98584 18.0972 1.38574 18.5073 1.91895 18.5073Z" fill="#CECECE"/>
</svg>
